PathFileType	4	(X/Y/Z)	C:\Users\Biomechanik\SynologyDrive\AlexP\Athlete_03\Athlete_3_25_03_31\Squat_bw_03\marker_experimental.trc
DataRate	CameraRate	NumFrames	NumMarkers	Units	OrigDataRate	OrigDataStartFrame	OrigNumFrames
200.000000	200.000000	4	55	mm	200.000000	408	544
Frame#	Time	BL			BR			GLAB			RFHD			LFHD			C7			T6			SPINMOL			SPINM2			SPINM3			T12			BELTOL			BELT2			BELT3			SACROL			SACR2			SACR3			LTHOL			LTH2			LTH3			LSHAOL			LSHA2			LSHA3			LHEE			LTOE			LM5			RTHOL			RTH2			RTH3			RSHAOL			RSHA2			RSHA3			RHEE			RTOE			RM5			STRN			XIPH			LACR			LUAOL			LUA2			LUA3			LLAOL			LLA2			LLA3			LWRR			LWRU			RACR			RUAOL			RUA2			RUA3			RLAOL			RLA2			RLA3			RWRR			RWRU			
		X1	Y1	Z1	X2	Y2	Z2	X3	Y3	Z3	X4	Y4	Z4	X5	Y5	Z5	X6	Y6	Z6	X7	Y7	Z7	X8	Y8	Z8	X9	Y9	Z9	X10	Y10	Z10	X11	Y11	Z11	X12	Y12	Z12	X13	Y13	Z13	X14	Y14	Z14	X15	Y15	Z15	X16	Y16	Z16	X17	Y17	Z17	X18	Y18	Z18	X19	Y19	Z19	X20	Y20	Z20	X21	Y21	Z21	X22	Y22	Z22	X23	Y23	Z23	X24	Y24	Z24	X25	Y25	Z25	X26	Y26	Z26	X27	Y27	Z27	X28	Y28	Z28	X29	Y29	Z29	X30	Y30	Z30	X31	Y31	Z31	X32	Y32	Z32	X33	Y33	Z33	X34	Y34	Z34	X35	Y35	Z35	X36	Y36	Z36	X37	Y37	Z37	X38	Y38	Z38	X39	Y39	Z39	X40	Y40	Z40	X41	Y41	Z41	X42	Y42	Z42	X43	Y43	Z43	X44	Y44	Z44	X45	Y45	Z45	X46	Y46	Z46	X47	Y47	Z47	X48	Y48	Z48	X49	Y49	Z49	X50	Y50	Z50	X51	Y51	Z51	X52	Y52	Z52	X53	Y53	Z53	X54	Y54	Z54	X55	Y55	Z55	

409	2.04	960.7108154296875	36.20170593261731	-1933.529907226562	1063.183349609375	32.89404678344726	86.65396118164062	555.7518920898438	1162.675903320312	-1189.984985351562	507.6141357421875	1191.939208984375	-1126.937744140625	513.8516845703125	1188.50634765625	-1262.55078125	297.1102294921875	1063.647705078125	-1193.847900390625	173.0110168457031	957.4962768554689	-1203.255737304688	153.9783782958984	933.8234252929689	-1226.006225585938	142.8006439208984	927.6495971679689	-1177.48095703125	113.7651977539062	882.0491333007814	-1215.833618164062	81.79055023193359	831.0749511718751	-1217.035278320312	46.48575592041016	823.0094604492189	-1233.009887695312	44.0948371887207	820.5044555664064	-1182.468139648438	6.63477611541748	774.1473388671876	-1212.705078125	-50.57224655151367	664.0258789062501	-1237.56689453125	-50.15457916259766	661.7158203125001	-1186.096435546875	-62.82865524291992	603.0751953125001	-1214.064208984375	132.8876647949219	482.0339355468751	-1503.43310546875	163.0507659912109	409.3858032226564	-1516.0869140625	178.9716033935547	454.2631225585939	-1533.009399414062	222.0638732910156	303.1487426757814	-1616.154296875	164.9913787841797	259.5798950195314	-1581.166870117188	208.8763427734375	244.4271392822266	-1601.414916992188	115.2170333862305	70.75915527343759	-1471.170166015625	317.0722961425781	50.28579711914072	-1549.701538085938	238.1876220703125	25.5126781463624	-1628.364013671875	108.2448883056641	472.5791625976563	-918.5366821289062	159.5521697998047	505.2641906738282	-866.5455932617188	156.8603668212891	458.2413635253907	-882.0556030273438	193.9886779785156	316.8459167480469	-805.4706420898438	200.3880462646484	238.1820220947266	-804.4116821289062	167.4185943603516	265.8380126953126	-829.70654296875	95.4908447265625	65.54587554931646	-966.4190673828125	286.0585632324219	47.59737777709967	-874.0549926757812	199.0930633544922	37.47948455810552	-800.3155517578125	416.2557983398438	902.8309326171876	-1201.001953125	364.9486389160156	763.8991088867189	-1200.94921875	348.0235290527344	1016.023071289063	-1360.274291992188	250.2818603515625	941.9577026367189	-1480.079833984375	198.6101226806641	905.7542114257814	-1498.916137695312	240.1067962646484	899.3757324218751	-1529.418823242188	255.7373504638672	843.7388305664064	-1620.3466796875	330.1355590820312	817.2718505859376	-1626.046142578125	313.7535095214844	864.3832397460939	-1617.679321289062	402.1943359375	917.8345336914064	-1608.233520507812	396.350341796875	914.3053588867189	-1530.547973632812	347.3487548828125	1013.990600585938	-1050.325317382812	254.4859313964844	939.8344726562501	-934.0827026367186	235.1725616455078	901.8575439453125	-883.8109741210938	203.9212799072266	898.6856079101562	-925.49609375	270.4644775390625	859.0938720703125	-778.7685546875	293.2032775878906	933.9371948242188	-793.3941040039061	322.0542297363281	894.6945190429688	-781.6372680664062	381.8767700195312	965.501953125	-801.1384277343749	384.1940612792969	956.8468627929688	-878.9096679687499	
410	2.045	960.7097778320312	36.20269775390637	-1933.530029296875	1063.182983398438	32.89323043823241	86.65386199951172	554.68994140625	1169.706176757812	-1189.860473632812	506.4926452636719	1198.90185546875	-1126.795654296875	512.7108154296875	1195.41748046875	-1262.4091796875	296.2908325195312	1069.947631835938	-1193.626831054688	172.5563354492188	963.2947387695314	-1203.033203125	153.6288604736328	939.5277709960939	-1225.779296875	142.4420928955078	933.3340454101564	-1177.271484375	113.6156234741211	887.6000366210939	-1215.605346679688	81.87401580810547	836.4786987304689	-1216.799682617188	46.395263671875	828.2309570312501	-1232.8173828125	44.01400756835938	825.7268066406251	-1182.267211914062	6.654022693634033	779.2790527343751	-1212.515380859375	-50.0283203125	669.2626342773439	-1237.39990234375	-49.61643218994141	666.9301147460939	-1185.925903320312	-62.33908081054688	608.3165283203126	-1213.927001953125	132.7440032958984	485.2010192871095	-1502.87158203125	162.3008575439453	412.2149963378907	-1514.958374023438	178.5839385986328	456.8251953125001	-1532.235229492188	221.4510803222656	303.5906677246095	-1615.546752929688	164.4769744873047	259.8115234375001	-1580.657836914062	208.4110260009766	244.8032836914063	-1600.9326171875	115.1743087768555	70.71700286865243	-1471.1943359375	317.0356140136719	50.31636428833017	-1549.707153320312	238.1934356689453	25.51237297058115	-1628.358276367188	108.0003890991211	475.7878723144532	-919.017333984375	159.4546203613281	507.6226501464844	-866.6551513671875	156.4742584228516	460.7717590332032	-882.6130981445312	193.3526000976562	317.2319335937501	-805.9760131835938	199.9485321044922	238.5895690917969	-804.7653198242188	166.9013519287109	266.0973205566407	-830.1109619140625	95.46504974365234	65.50653839111334	-966.4091796875	286.0427551269531	47.5877189636231	-874.0629272460938	199.091552734375	37.47524261474614	-800.3163452148438	415.9151306152344	909.5592041015626	-1200.754028320312	365.0098571777344	770.3229980468751	-1200.708984375	347.235595703125	1022.546569824219	-1360.063232421875	249.6744689941406	948.2456054687501	-1479.836547851562	198.1053314208984	911.8994140625001	-1498.686279296875	239.5720062255859	905.6991577148439	-1529.234985351562	255.3564605712891	850.2450561523439	-1620.218872070312	329.8505554199219	824.0691528320314	-1625.990112304688	313.2906188964844	871.1169433593751	-1617.552001953125	401.5423278808594	924.8687744140626	-1608.085815429688	395.7594909667969	921.2284545898439	-1530.433837890625	346.6155090332031	1020.469970703125	-1050.055541992188	253.8868865966797	946.1204223632814	-933.8790893554686	234.6425170898438	908.1486206054688	-883.5386962890625	203.4530334472656	904.8206176757812	-925.2804565429688	269.9740295410156	865.6151733398438	-778.4706420898438	292.4782104492188	940.5090942382812	-793.1948852539061	321.4519653320312	901.3863525390625	-781.3265991210938	381.0564270019531	972.3555908203125	-800.8704833984374	383.4259338378906	963.6528930664062	-878.6216430664061	
411	2.05	960.7086791992188	36.20361709594739	-1933.530029296875	1063.182739257812	32.89247131347656	86.65359497070312	553.60546875	1176.774780273438	-1189.739013671875	505.35009765625	1205.900268554688	-1126.655029296875	511.5425415039062	1202.369384765625	-1262.265625	295.4503479003906	1076.278076171875	-1193.407836914062	172.0902557373047	969.1160278320314	-1202.814208984375	153.2686157226562	945.2539672851564	-1225.55712890625	142.0743408203125	939.0377807617189	-1177.062133789062	113.4611587524414	893.1688842773439	-1215.381103515625	81.97174072265625	841.9067382812501	-1216.566650390625	46.3126106262207	833.4703369140626	-1232.630004882812	43.94350051879883	830.9620361328126	-1182.072509765625	6.690576553344727	784.4208374023439	-1212.331787109375	-49.46247863769531	674.5192260742189	-1237.236938476562	-49.0574836730957	672.1660156250001	-1185.76025390625	-61.82321548461914	613.5768432617189	-1213.791870117188	132.6039581298828	488.3824768066407	-1502.291259765625	161.5462799072266	415.0700073242189	-1513.814575195312	178.1955413818359	459.4063415527345	-1531.436767578125	220.8224182128906	304.0439758300782	-1614.91064453125	163.9531555175781	260.0468139648439	-1580.123657226562	207.9344787597656	245.1884002685548	-1600.428833007812	115.1323699951172	70.67114257812509	-1471.216552734375	316.9993896484375	50.34665298461923	-1549.710693359375	238.1995391845703	25.51435661315928	-1628.3505859375	107.7611694335938	479.0204162597657	-919.52685546875	159.3598175048828	509.9950866699219	-866.8018188476562	156.0903625488281	463.3224792480469	-883.2074584960938	192.7020874023438	317.6346435546876	-806.5174560546875	199.4926147460938	239.0154724121094	-805.137451171875	166.3727722167969	266.3691406250001	-830.544677734375	95.43608093261719	65.46315002441412	-966.398193359375	286.0258483886719	47.58057785034185	-874.068115234375	199.0891265869141	37.4712638854981	-800.3157958984375	415.5641784667969	916.3247070312501	-1200.510009765625	365.07568359375	776.7904663085939	-1200.473266601562	346.4261779785156	1029.097412109375	-1359.859130859375	249.0491485595703	954.5529785156251	-1479.59423828125	197.5831451416016	918.0625610351564	-1498.453735351562	239.0230407714844	912.0356445312501	-1529.046020507812	254.9551239013672	856.7612915039064	-1620.084594726562	329.5450134277344	830.8779907226564	-1625.9267578125	312.8092041015625	877.8593139648439	-1617.418579101562	400.8662719726562	931.9174194335939	-1607.93994140625	395.1489868164062	928.1704711914064	-1530.321166992188	345.8681030273438	1026.97900390625	-1049.787963867188	253.2796783447266	952.4328613281251	-933.6756591796874	234.1073913574219	914.4639892578125	-883.2644653320312	202.9797210693359	910.977783203125	-925.0646362304688	269.4810180664062	872.1619262695312	-778.1727294921875	291.7469482421875	947.1078491210938	-792.9983520507811	320.8450622558594	908.1055297851562	-781.0170288085938	380.2277526855469	979.2391967773438	-800.6029052734374	382.6528625488281	970.4871826171875	-878.3326416015624	
412	2.055	960.707763671875	36.20439910888684	-1933.530029296875	1063.182495117188	32.89184188842773	86.65315246582031	552.4990234375	1183.879272460938	-1189.618041992188	504.1867980957031	1212.931396484375	-1126.514770507812	510.3484802246094	1209.35986328125	-1262.11865234375	294.589111328125	1082.637084960938	-1193.192260742188	171.6135101318359	974.9579467773439	-1202.59912109375	152.8981170654297	951.0000000000001	-1225.340209960938	141.6979370117188	944.7583007812501	-1176.852294921875	113.3023834228516	898.7536621093751	-1215.161376953125	82.07770538330078	847.3555297851564	-1216.337646484375	46.23947143554688	838.7259521484376	-1232.448852539062	43.88441848754883	836.2091674804689	-1181.885009765625	6.745274066925049	789.5718383789064	-1212.1552734375	-48.87553024291992	679.7940063476564	-1237.078735351562	-48.47825241088867	677.4222412109376	-1185.600341796875	-61.28274917602539	618.8547973632814	-1213.6591796875	132.4665985107422	491.5767211914064	-1501.692016601562	160.7876281738281	417.949676513672	-1512.654174804688	177.8058319091797	462.0051879882814	-1530.61376953125	220.1773223876953	304.5071716308595	-1614.246826171875	163.4196014404297	260.2840576171876	-1579.565185546875	207.4468841552734	245.5809936523438	-1599.903930664062	115.0913009643555	70.62168884277352	-1471.236450195312	316.963623046875	50.37665939331064	-1549.712280273438	238.2057495117188	25.51872062683115	-1628.340942382812	107.5269241333008	482.2773437500001	-920.0636596679688	159.2683563232422	512.3824462890625	-866.9850463867188	155.7085113525391	465.8944091796876	-883.8378295898438	192.0371704101562	318.0536499023438	-807.0945434570312	199.0213012695312	239.4594268798829	-805.5289916992188	165.8331756591797	266.6537170410157	-831.0068969726562	95.40391540527344	65.41616058349615	-966.3860473632812	286.0079345703125	47.57588577270513	-874.0708618164062	199.0858154296875	37.46765518188482	-800.3138427734375	415.2044067382812	923.1237792968751	-1200.270874023438	365.1471862792969	783.3022460937501	-1200.242431640625	345.5961303710938	1035.671752929688	-1359.661743164062	248.4067840576172	960.8778686523439	-1479.352783203125	197.0446472167969	924.2413330078126	-1498.21875	238.4613647460938	918.3826904296876	-1528.851440429688	254.5347290039062	863.2836914062501	-1619.943603515625	329.2200622558594	837.6940917968751	-1625.855346679688	312.309814453125	884.6068115234376	-1617.279541015625	400.1676940917969	938.9763183593751	-1607.796020507812	394.5199890136719	935.1282958984376	-1530.209350585938	345.1074523925781	1033.515502929688	-1049.523193359375	252.6653747558594	958.7695922851564	-933.4732055664061	233.5681457519531	920.801025390625	-882.9899291992188	202.5025177001953	917.1546020507812	-924.8494873046875	268.986083984375	878.7301635742188	-777.8759765625	291.0108032226562	953.7291259765625	-792.8038330078124	320.234375	914.8473510742188	-780.7093505859375	379.3927001953125	986.1476440429688	-800.3356323242186	381.8766479492188	977.3453979492188	-878.0426025390624	
